<svg xmlns="http://www.w3.org/2000/svg" width="646.175" height="231.533" viewBox="0 0 646.175 231.533">
  <g id="Group_66" data-name="Group 66" transform="translate(-75 -7377.467)">
    <g id="Group_30" data-name="Group 30" transform="translate(76 7380.679)">
      <g id="Group_8" data-name="Group 8" transform="translate(0 2.052)">
        <path id="Path_12" data-name="Path 12" d="M60.885,157.439a34.907,34.907,0,0,0,20.868-6.915q9.575-6.931,15.335-19.606l2.082,1.155-.7.927q-6,12.448-15.913,19.378a37.061,37.061,0,0,1-21.688,6.915q-29.523,0-45.2-16.034Q.008,127.232,0,97.01T14.879,50.532Q29.766,34.278,59.274,34.27A60.453,60.453,0,0,1,70.339,35.3a35.124,35.124,0,0,1,10.837,4.043,42.122,42.122,0,0,1,10.259,8.42,64.658,64.658,0,0,1,9.347,13.952,6.473,6.473,0,0,1,.35.806,6.474,6.474,0,0,0,.35.806v.228a15.871,15.871,0,0,1,.806,9.453A15.377,15.377,0,0,1,86.024,85a14.842,14.842,0,0,1-10.609-5.3,14.67,14.67,0,0,1-3.921-11.308,14.843,14.843,0,0,1,5.3-10.609,15.265,15.265,0,0,1,17.068-2.295q-7.842-11.08-16.141-15a39.088,39.088,0,0,0-16.84-3.921q-18.671,0-28.6,15.457-9.917,15.457-9.925,44.972t9.925,44.972q9.917,15.457,28.6,15.457Zm-8.3-100.326L54.2,55.5l1.611,1.611L54.2,61.491Z" transform="translate(0 15.764)" fill="#554994"/>
        <path id="Path_12_-_Outline" data-name="Path 12 - Outline" d="M60.87,160.293a93.029,93.029,0,0,1-14.049-1.012,67.944,67.944,0,0,1-12.35-3.05,53.728,53.728,0,0,1-10.633-5.106,48.446,48.446,0,0,1-8.883-7.168,49.338,49.338,0,0,1-7-9.084,56.153,56.153,0,0,1-4.987-10.868A72.138,72.138,0,0,1-.009,111.381,99.39,99.39,0,0,1-1,97.01,104.972,104.972,0,0,1-.061,82.632,76.036,76.036,0,0,1,2.766,69.972,58.469,58.469,0,0,1,7.5,59.04a50.119,50.119,0,0,1,6.645-9.183,45.505,45.505,0,0,1,8.544-7.273A50.557,50.557,0,0,1,33.074,37.4a64.859,64.859,0,0,1,12.2-3.1,90.569,90.569,0,0,1,14-1.029,61.7,61.7,0,0,1,11.247,1.05,36.344,36.344,0,0,1,11.147,4.156,43.33,43.33,0,0,1,10.505,8.616,65.948,65.948,0,0,1,9.5,14.167l.006.011a7.348,7.348,0,0,1,.4.936,5.546,5.546,0,0,0,.3.675l.106.211v.275a16.92,16.92,0,0,1,.783,9.855,16.114,16.114,0,0,1-5.272,8.838l-.008.007a16,16,0,0,1-10.693,3.98c-.438,0-.887-.016-1.336-.048a15.857,15.857,0,0,1-11.288-5.64A15.7,15.7,0,0,1,70.5,68.32a15.857,15.857,0,0,1,5.646-11.294,16.251,16.251,0,0,1,8.831-4.037,17.07,17.07,0,0,1,2.089-.13,15.9,15.9,0,0,1,3.984.5c-4.469-5.736-9.085-9.758-13.75-11.975a38.239,38.239,0,0,0-16.411-3.824c-12.037,0-21.377,5.046-27.762,15-6.48,10.1-9.766,25.05-9.766,44.432,0,19.406,3.286,34.355,9.766,44.432,6.385,9.952,15.726,15,27.763,15h1a34.165,34.165,0,0,0,19.283-6.712c6.213-4.5,11.263-10.96,15.01-19.209l.448-.987,4.036,2.239-1.332,1.767a56.057,56.057,0,0,1-7.061,11.18,45.8,45.8,0,0,1-9.137,8.495,39.608,39.608,0,0,1-10.652,5.324A38.2,38.2,0,0,1,60.87,160.293ZM59.274,35.27c-19.283,0-33.972,5.362-43.657,15.938S1,77.208,1,97.01c0,19.778,5.176,35.1,15.385,45.55,9.4,9.635,22.873,14.886,40.088,15.639a33.549,33.549,0,0,1-12.56-3.759A34.265,34.265,0,0,1,31.44,142.507a59.164,59.164,0,0,1-7.582-19.294,123.2,123.2,0,0,1-2.5-26.218,123.045,123.045,0,0,1,2.507-26.218A59.368,59.368,0,0,1,31.44,51.482,34.26,34.26,0,0,1,43.92,39.549a35.294,35.294,0,0,1,16.966-3.984,40.225,40.225,0,0,1,17.267,4.017A34.04,34.04,0,0,1,86.59,45.47a60.932,60.932,0,0,1,8.092,9.439l-1.263,1.472a14.1,14.1,0,0,0-6.357-1.522,15.06,15.06,0,0,0-1.843.115,14.287,14.287,0,0,0-7.762,3.559l-.008.007a13.924,13.924,0,0,0-4.958,9.92,13.592,13.592,0,0,0,3.665,10.566l.018.02a13.924,13.924,0,0,0,9.92,4.958c.4.028.8.043,1.2.043A14.364,14.364,0,0,0,101.309,72.8a14.97,14.97,0,0,0-.757-8.871l-.071-.178v-.189a6.484,6.484,0,0,1-.3-.72,5.52,5.52,0,0,0-.293-.669A63.97,63.97,0,0,0,90.7,48.44a41.346,41.346,0,0,0-10.013-8.224,34.346,34.346,0,0,0-10.53-3.93A59.683,59.683,0,0,0,59.274,35.27Zm38.268,97.043a55.738,55.738,0,0,1-6.383,10.466,44.8,44.8,0,0,1-6.425,6.683,49.556,49.556,0,0,0,12.835-16.9l.043-.089.066-.088ZM54.2,64.386l-2.77-7.527,2.77-2.77,2.77,2.77Zm-.452-7.018L54.2,58.6l.452-1.227-.452-.452Z" transform="translate(0 15.764)" fill="#222"/>
        <path id="Path_13" data-name="Path 13" d="M194.645,154.473a23.725,23.725,0,0,1-7.143,4.149,26.953,26.953,0,0,1-10.153,1.611q-11.08,0-16.141-4.848a20.108,20.108,0,0,1-6-10.381,23.007,23.007,0,0,1-1.383-8.542V124.928q-3.009,15.913-12.919,24.91a34.111,34.111,0,0,1-23.755,9,92.157,92.157,0,0,1-18.223-1.611,35.5,35.5,0,0,1-12.919-5.076q-9.233-5.768-9.226-17.3A33.176,33.176,0,0,1,79.668,120.9a30.54,30.54,0,0,1,8.192-10.837,39.286,39.286,0,0,1,12.691-7.037,50.254,50.254,0,0,1,16.369-2.538q19.378,0,28.133-7.964t8.77-25.488q0-16.62-6.915-24.91-6.224-7.386-17.995-7.387A40.92,40.92,0,0,0,109.3,39.694,46.992,46.992,0,0,0,93.62,53.418a14.361,14.361,0,0,1,9.925-1.5,15.862,15.862,0,0,1,9,5.183,14.828,14.828,0,0,1,3.921,11.414A15.389,15.389,0,0,1,99.745,83.162a15.854,15.854,0,0,1-13.5-21.688q5.312-14.75,16.612-21.688t26.065-6.915q45.208,0,45.2,43.133v68.272q0,6.7,2.082,9a7.654,7.654,0,0,0,6,2.31,15.221,15.221,0,0,0,5.3-.927,24.222,24.222,0,0,0,5.3-2.766l1.839,2.538ZM153.821,78.815l-.927,2.538q-2.758,10.852-10.958,15.685-8.184,4.833-23.178,4.848-9.689,0-15.685,8.876-6,8.891-6,23.406,0,11.308,4.848,17.068,5.312,6.452,16.141,6.459,15,0,24.561-10.837,9.575-10.829,11.186-29.288V78.815ZM130.993,56.671l-1.611,4.377-1.611-4.377,1.611-1.611Z" transform="translate(39.914 15.036)" fill="#554994"/>
        <path id="Path_13_-_Outline" data-name="Path 13 - Outline" d="M177.349,161.234a34.659,34.659,0,0,1-9.863-1.252,16.964,16.964,0,0,1-6.958-3.862,21.143,21.143,0,0,1-6.277-10.805,24.219,24.219,0,0,1-1.43-8.85V132.8a47.293,47.293,0,0,1-2.845,6.774,38.916,38.916,0,0,1-8.4,11,35.225,35.225,0,0,1-11.215,6.944,37.182,37.182,0,0,1-13.212,2.312A93.492,93.492,0,0,1,98.725,158.2a36.7,36.7,0,0,1-13.266-5.219,20.125,20.125,0,0,1-7.257-7.573,22.213,22.213,0,0,1-2.422-10.56,34.325,34.325,0,0,1,2.978-14.368A31.645,31.645,0,0,1,87.214,109.3a40.489,40.489,0,0,1,13.01-7.218,51.476,51.476,0,0,1,16.7-2.593c12.6,0,21.835-2.592,27.46-7.7,5.6-5.091,8.442-13.418,8.442-24.748,0-10.775-2.248-18.94-6.682-24.268-3.931-4.664-9.727-7.029-17.229-7.029a40.113,40.113,0,0,0-19.134,4.836A45.7,45.7,0,0,0,96.743,51.1a15.046,15.046,0,0,1,3.794-.482,17.019,17.019,0,0,1,12.748,5.81,15.841,15.841,0,0,1,4.175,12.152,16.77,16.77,0,0,1-5.631,11.63l-.039.034a16.746,16.746,0,0,1-10.8,3.964c-.432,0-.874-.016-1.314-.048a16.558,16.558,0,0,1-11.4-5.63l-.014-.016a17.056,17.056,0,0,1-2.944-17.4,48.382,48.382,0,0,1,6.946-13.047,37.081,37.081,0,0,1,10.076-9.134,46.632,46.632,0,0,1,12.433-5.3,55.314,55.314,0,0,1,14.155-1.758,66.686,66.686,0,0,1,20.08,2.743,36.964,36.964,0,0,1,14.512,8.317A34.725,34.725,0,0,1,172.246,56.8a58.483,58.483,0,0,1,2.88,19.2v68.272c0,5.209.992,7.4,1.825,8.328a6.662,6.662,0,0,0,5.26,1.98,14.258,14.258,0,0,0,4.952-.863,23.264,23.264,0,0,0,5.081-2.648l.806-.567,2.719,3.753-.261.78-.193.176a24.787,24.787,0,0,1-7.44,4.336A28.052,28.052,0,0,1,177.349,161.234Zm-23.528-36.4,1,.094v11.536a22.171,22.171,0,0,0,1.311,8.169l.025.063.017.066a19.2,19.2,0,0,0,5.7,9.879l.025.023c3.161,3.032,8.358,4.57,15.449,4.57a26.115,26.115,0,0,0,9.771-1.535l.009,0a24.71,24.71,0,0,0,6.193-3.408l-.747-1.03a26.064,26.064,0,0,1-4.7,2.334l-.01,0a16.251,16.251,0,0,1-5.651.989,8.65,8.65,0,0,1-6.746-2.641c-1.574-1.747-2.339-4.909-2.339-9.667V76c0-14.027-3.7-24.668-10.989-31.627-6.648-6.344-16.5-9.842-29.32-10.421a25.77,25.77,0,0,1,6.855,1.705,20.555,20.555,0,0,1,8,5.821l0,0a28.586,28.586,0,0,1,5.38,10.747,55.823,55.823,0,0,1,1.767,14.8,54.5,54.5,0,0,1-.99,10.779h1.42l-.445,1.218v38.582l0,.044Q154.475,121.385,153.821,124.834Zm-40.347-23.245a47.458,47.458,0,0,0-12.6,2.384,38.5,38.5,0,0,0-12.369,6.855,29.664,29.664,0,0,0-7.927,10.486,32.345,32.345,0,0,0-2.8,13.539c0,7.387,2.864,12.767,8.755,16.448l.033.022a34.71,34.71,0,0,0,12.558,4.923A79.838,79.838,0,0,0,110,157.621q-.913-.273-1.766-.614a17.469,17.469,0,0,1-7.088-5.131,20.063,20.063,0,0,1-3.832-7.516,37.633,37.633,0,0,1-1.248-10.192A54.022,54.022,0,0,1,97.6,120.809a34,34,0,0,1,4.64-10.606C105.281,105.712,109.044,102.829,113.474,101.588Zm39.332-16.565a27.385,27.385,0,0,1-3.215,6.25,22.831,22.831,0,0,1-7.147,6.626,33.586,33.586,0,0,1-10.194,3.75,66.527,66.527,0,0,1-13.492,1.237c-6.159,0-11.019,2.759-14.856,8.436-3.87,5.738-5.832,13.425-5.832,22.846,0,7.262,1.552,12.788,4.613,16.424l.007.008c3.33,4.044,8.5,6.1,15.369,6.1,9.64,0,17.652-3.532,23.812-10.5,6.195-7.006,9.874-16.652,10.935-28.669ZM89.763,77.194a14.617,14.617,0,0,0,10.054,4.971c.393.028.787.043,1.171.043a14.6,14.6,0,0,0,9.519-3.5,14.829,14.829,0,0,0,4.959-10.269A13.909,13.909,0,0,0,111.8,57.768l-.006-.006a15.02,15.02,0,0,0-11.258-5.143A13.231,13.231,0,0,0,94.1,54.295l-1.287-1.47a50.013,50.013,0,0,1,7.294-7.968,47.326,47.326,0,0,1,8.722-6.044,43,43,0,0,1,9.747-3.8q1.866-.472,3.785-.77a46.1,46.1,0,0,0-18.98,6.4c-7.3,4.472-12.744,11.6-16.194,21.175l-.016.043a14.623,14.623,0,0,0-.863,7.888A14.472,14.472,0,0,0,89.763,77.194Zm39.62-13.25-2.77-7.527,2.77-2.77,2.77,2.77Zm-.452-7.017.452,1.227.452-1.227-.452-.452Z" transform="translate(39.914 15.036)" fill="#222"/>
        <path id="Path_14" data-name="Path 14" d="M196.588,174.1h-.228l-.228.456H157.148a.2.2,0,0,0-.228-.228V174.1h1.155a6.617,6.617,0,0,0,3.572-.927,7.555,7.555,0,0,0,2.66-3.465,26.161,26.161,0,0,0,1.733-7.143,101.25,101.25,0,0,0,.578-11.992V25.333a101.251,101.251,0,0,0-.578-11.992,26.79,26.79,0,0,0-1.733-7.265,7.61,7.61,0,0,0-2.66-3.572,6.753,6.753,0,0,0-3.572-.927H156.92V1.35h29.987V150.584a98.569,98.569,0,0,0,.578,11.885,31.2,31.2,0,0,0,1.611,7.143,6.125,6.125,0,0,0,6.125,4.5H196.6Z" transform="translate(81.575 -1.35)" fill="#554994"/>
        <path id="Path_14_-_Outline" data-name="Path 14 - Outline" d="M196.75,175.553h-40.6v-.228h-.228V173.1h2.155a5.609,5.609,0,0,0,3.044-.777l.009-.006a6.682,6.682,0,0,0,2.268-3.025,25.331,25.331,0,0,0,1.651-6.857,100.653,100.653,0,0,0,.569-11.864V25.333a100.651,100.651,0,0,0-.57-11.869,25.929,25.929,0,0,0-1.656-6.985,6.739,6.739,0,0,0-2.263-3.119,5.8,5.8,0,0,0-3.053-.782H155.92V.35h31.987V150.584a98.078,98.078,0,0,0,.57,11.76,30.3,30.3,0,0,0,1.55,6.9,5.849,5.849,0,0,0,2.22,3.066l.009.005a5.777,5.777,0,0,0,2.965.793h.514l.008-.015H197l.015.015h.955l-.317.634,1.377,1.366h-2.06Zm-33.928-2h27.709a8.579,8.579,0,0,1-2.365-3.571l0-.007a32.208,32.208,0,0,1-1.671-7.379,99.989,99.989,0,0,1-.585-12.011V2.35H163.07a10.24,10.24,0,0,1,2.152,3.324,27.827,27.827,0,0,1,1.81,7.545,102.577,102.577,0,0,1,.585,12.114V150.569a102.576,102.576,0,0,1-.585,12.114,27.221,27.221,0,0,1-1.813,7.431A9.543,9.543,0,0,1,162.822,173.553Z" transform="translate(81.575 -1.35)" fill="#222"/>
        <path id="Path_15" data-name="Path 15" d="M226.018,174.1h-.228l-.228.456H186.578a.2.2,0,0,0-.228-.228V174.1H187.5a6.616,6.616,0,0,0,3.572-.927,7.556,7.556,0,0,0,2.66-3.465,26.162,26.162,0,0,0,1.733-7.143,101.25,101.25,0,0,0,.578-11.992V25.333a101.251,101.251,0,0,0-.578-11.992,26.791,26.791,0,0,0-1.733-7.265,7.611,7.611,0,0,0-2.66-3.572,6.752,6.752,0,0,0-3.572-.927H186.35V1.35h29.987V150.584a98.569,98.569,0,0,0,.578,11.885,31.189,31.189,0,0,0,1.611,7.143,6.125,6.125,0,0,0,6.125,4.5h1.383Z" transform="translate(96.875 -1.35)" fill="#554994"/>
        <path id="Path_15_-_Outline" data-name="Path 15 - Outline" d="M226.18,175.553h-40.6v-.228h-.228V173.1H187.5a5.609,5.609,0,0,0,3.044-.777l.009-.006a6.683,6.683,0,0,0,2.268-3.025,25.334,25.334,0,0,0,1.651-6.857,100.651,100.651,0,0,0,.569-11.864V25.333a100.646,100.646,0,0,0-.57-11.869,25.93,25.93,0,0,0-1.656-6.985,6.74,6.74,0,0,0-2.263-3.119,5.8,5.8,0,0,0-3.053-.782H185.35V.35h31.987V150.584a98.078,98.078,0,0,0,.57,11.76,30.286,30.286,0,0,0,1.55,6.9,5.849,5.849,0,0,0,2.219,3.064l.009.005a5.779,5.779,0,0,0,2.965.793h.514l.008-.015h1.258l.015.015h.955l-.317.633,1.377,1.367H226.4Zm-33.928-2h27.709a8.583,8.583,0,0,1-2.365-3.571l0-.007a32.2,32.2,0,0,1-1.671-7.379,99.988,99.988,0,0,1-.585-12.011V2.35H192.5a10.242,10.242,0,0,1,2.152,3.324,27.827,27.827,0,0,1,1.81,7.545,102.573,102.573,0,0,1,.585,12.114V150.569a102.573,102.573,0,0,1-.585,12.114,27.223,27.223,0,0,1-1.813,7.431A9.546,9.546,0,0,1,192.252,173.553Z" transform="translate(96.875 -1.35)" fill="#222"/>
        <path id="Path_16" data-name="Path 16" d="M257.81,156.978v.228l-.228.228H218.6l-.228-.228v-.228h1.383a6.19,6.19,0,0,0,3.344-.927,7.554,7.554,0,0,0,2.66-3.465,26.153,26.153,0,0,0,1.733-7.143,101.247,101.247,0,0,0,.578-11.992V58.263a101.247,101.247,0,0,0-.578-11.992,26.8,26.8,0,0,0-1.733-7.265,7.609,7.609,0,0,0-2.66-3.572,6.325,6.325,0,0,0-3.344-.927H218.37l.228-.228h29.759v99.17a101.22,101.22,0,0,0,.578,11.992,29.352,29.352,0,0,0,1.611,7.143,6.188,6.188,0,0,0,6.125,4.392h1.155Z" transform="translate(113.52 15.769)" fill="#554994"/>
        <path id="Path_16_-_Outline" data-name="Path 16 - Outline" d="M258,158.434H218.184l-.813-.814v-1.642h2.383a5.18,5.18,0,0,0,2.816-.776l.009-.006a6.681,6.681,0,0,0,2.268-3.024,25.324,25.324,0,0,0,1.651-6.857,100.646,100.646,0,0,0,.569-11.864V58.263a100.642,100.642,0,0,0-.57-11.869,25.933,25.933,0,0,0-1.656-6.985,6.738,6.738,0,0,0-2.263-3.119,5.3,5.3,0,0,0-2.825-.782h-3.8l2.227-2.228h31.173V133.45a100.624,100.624,0,0,0,.57,11.869,28.451,28.451,0,0,0,1.545,6.89,5.859,5.859,0,0,0,2.233,2.975,5.778,5.778,0,0,0,2.965.793h2.14v1.642Zm-33.724-2H252a8.427,8.427,0,0,1-2.381-3.468,30.339,30.339,0,0,1-1.678-7.4,102.55,102.55,0,0,1-.585-12.114V35.28H224.52a10.239,10.239,0,0,1,2.152,3.324,27.831,27.831,0,0,1,1.81,7.544,102.568,102.568,0,0,1,.585,12.114V133.45a102.567,102.567,0,0,1-.585,12.114A27.214,27.214,0,0,1,226.668,153,9.541,9.541,0,0,1,224.272,156.434Z" transform="translate(113.52 15.769)" fill="#222"/>
        <path id="Path_17" data-name="Path 17" d="M329.462,100.121Q341,110.494,341,124.8a31.057,31.057,0,0,1-3.344,14.53,33.65,33.65,0,0,1-9.453,11.186,43.942,43.942,0,0,1-14.758,7.265,67.569,67.569,0,0,1-19.029,2.538,53.568,53.568,0,0,1-43.589-22.372,14.814,14.814,0,0,1-3.344-11.08,15.4,15.4,0,0,1,5.183-10.381A15.605,15.605,0,0,1,278.5,129.409a14.843,14.843,0,0,1-5.3,10.609,15.764,15.764,0,0,1-7.037,3.572,14.41,14.41,0,0,1-7.493-.35c1.079,1.079,2.158,2.082,3.222,2.994a28.962,28.962,0,0,0,3.465,2.538A49.443,49.443,0,0,0,294.415,158q11.764,0,18.8-8.526,7.022-8.526,7.037-22.6,0-8.07-7.964-13.724t-22.022-7.493q-20.29-2.531-31.6-12.691A32.678,32.678,0,0,1,247.36,67.6a33.217,33.217,0,0,1,3.116-14.423,31.531,31.531,0,0,1,8.876-11.186,42.622,42.622,0,0,1,13.724-7.159,58.013,58.013,0,0,1,17.646-2.538,51.251,51.251,0,0,1,15.806,2.417,35.3,35.3,0,0,1,13.724,8.42,8.092,8.092,0,0,1,1.611,1.611,14.689,14.689,0,0,1,3.921,11.308,15.632,15.632,0,0,1-5.3,10.837,15.087,15.087,0,0,1-11.308,3.693,15.632,15.632,0,0,1-10.836-5.3,15.087,15.087,0,0,1-3.693-11.308,15.63,15.63,0,0,1,5.3-10.837A14.285,14.285,0,0,1,305.6,39.9a14.9,14.9,0,0,1,6.338-.456,41.762,41.762,0,0,0-21.217-5.3,20.3,20.3,0,0,0-17.068,8.648q-6.452,8.64-6.459,22.95,0,8.07,7.265,13.6,7.272,5.517,20.64,7.386,22.364,3.237,34.364,13.375Zm-47.51-43.589,1.839-1.611,1.383,1.611-1.383,4.377Z" transform="translate(128.591 14.734)" fill="#554994"/>
        <path id="Path_17_-_Outline" data-name="Path 17 - Outline" d="M294.415,161.322a55.049,55.049,0,0,1-12.982-1.525,53.791,53.791,0,0,1-12.163-4.591,55.3,55.3,0,0,1-10.688-7.221,53.367,53.367,0,0,1-8.553-9.43,15.847,15.847,0,0,1-3.543-11.775A16.429,16.429,0,0,1,252,115.747l.015-.013a16.293,16.293,0,0,1,10.883-4.208c.413,0,.836.015,1.257.046a16.282,16.282,0,0,1,11.413,5.874l0,0a16.12,16.12,0,0,1,3.932,12.029,15.859,15.859,0,0,1-5.65,11.3,16.83,16.83,0,0,1-7.482,3.791,15.781,15.781,0,0,1-3.314.358q-.6,0-1.2-.048.343.3.683.6a27.806,27.806,0,0,0,3.347,2.451l.042.028A48.7,48.7,0,0,0,294.415,157c7.594,0,13.491-2.67,18.03-8.163,4.517-5.485,6.808-12.875,6.808-21.963,0-5.08-2.467-9.3-7.543-12.909-5.136-3.649-12.394-6.111-21.571-7.316a73.786,73.786,0,0,1-18.29-4.5A46.471,46.471,0,0,1,258,93.706,33.676,33.676,0,0,1,246.36,67.6a34.382,34.382,0,0,1,3.212-14.852,32.7,32.7,0,0,1,9.154-11.538,43.816,43.816,0,0,1,14.045-7.331,59.272,59.272,0,0,1,17.951-2.586,52.462,52.462,0,0,1,16.113,2.465,36.429,36.429,0,0,1,14.068,8.61,9.053,9.053,0,0,1,1.733,1.736,15.689,15.689,0,0,1,4.147,12.016,16.654,16.654,0,0,1-5.631,11.507l-.02.018a16,16,0,0,1-10.693,3.98c-.438,0-.888-.016-1.336-.048a16.653,16.653,0,0,1-11.507-5.63l-.018-.02a16.12,16.12,0,0,1-3.932-12.029,16.652,16.652,0,0,1,5.631-11.508,15.331,15.331,0,0,1,6.044-3.441,16.242,16.242,0,0,1,2.374-.505,42.555,42.555,0,0,0-16.973-3.3,19.413,19.413,0,0,0-16.267,8.246c-4.154,5.563-6.261,13.084-6.261,22.351,0,5.04,2.311,9.348,6.869,12.806,4.714,3.576,11.5,6,20.172,7.192h.007a91.728,91.728,0,0,1,19.994,5.018,52.224,52.224,0,0,1,14.872,8.583l.354.3v.036a36.527,36.527,0,0,1,8.558,11.38,33.737,33.737,0,0,1-.478,28.736,34.78,34.78,0,0,1-9.729,11.517,45.131,45.131,0,0,1-15.088,7.433A68.819,68.819,0,0,1,294.415,161.322ZM253.326,117.24a14.485,14.485,0,0,0-4.849,9.722A13.734,13.734,0,0,0,251.6,137.32l.039.051a52.568,52.568,0,0,0,42.774,21.951,66.827,66.827,0,0,0,18.747-2.5,43.152,43.152,0,0,0,14.426-7.1,32.8,32.8,0,0,0,9.179-10.857A30.2,30.2,0,0,0,340,124.8c0-9.2-3.77-17.253-11.2-23.939l-.238-.214c-7.8-6.48-19.1-10.83-33.6-12.929A60.418,60.418,0,0,1,282.914,84.9a33.859,33.859,0,0,1-9.059-4.755c-5.083-3.856-7.661-8.7-7.661-14.4a48.766,48.766,0,0,1,1.654-13.159,31.538,31.538,0,0,1,5-10.389,21.244,21.244,0,0,1,14.466-8.82,55.014,55.014,0,0,0-13.939,2.408,41.823,41.823,0,0,0-13.4,6.987,30.713,30.713,0,0,0-8.6,10.834A32.4,32.4,0,0,0,248.36,67.6a31.84,31.84,0,0,0,10.976,24.622c7.343,6.6,17.791,10.789,31.054,12.443h.006a66.864,66.864,0,0,1,12.73,2.839,37.81,37.81,0,0,1,9.741,4.83c5.564,3.953,8.385,8.845,8.385,14.539a43.74,43.74,0,0,1-1.808,12.983,30.1,30.1,0,0,1-5.457,10.253,23.941,23.941,0,0,1-8.579,6.67A26.44,26.44,0,0,1,294.415,159a51.238,51.238,0,0,1-15.522-2.351A51.943,51.943,0,0,1,264.8,149.6a29.755,29.755,0,0,1-3.563-2.613c-1.076-.922-2.179-1.947-3.277-3.045l1.007-1.661a13.6,13.6,0,0,0,4.085.64,13.779,13.779,0,0,0,2.9-.314h.006a14.852,14.852,0,0,0,6.594-3.354,14.634,14.634,0,0,0,1.5-20.5,14.164,14.164,0,0,0-10.045-5.188c-.373-.027-.747-.04-1.113-.04A14.346,14.346,0,0,0,253.326,117.24Zm45.76-52.63a14.712,14.712,0,0,0,10.156,4.968c.4.028.8.043,1.2.043a14.052,14.052,0,0,0,9.38-3.489,14.713,14.713,0,0,0,4.968-10.157,13.762,13.762,0,0,0-3.665-10.566l-.031-.034-.028-.037a7.054,7.054,0,0,0-1.411-1.411l-.049-.037-.044-.043a34.468,34.468,0,0,0-13.337-8.188q-.624-.2-1.256-.385a39.281,39.281,0,0,1,7.472,3.309l-.639,1.857a14.24,14.24,0,0,0-1.993-.142,14.007,14.007,0,0,0-3.925.568,13.351,13.351,0,0,0-5.261,3,14.714,14.714,0,0,0-4.98,10.167A14,14,0,0,0,299.086,64.61Zm-15.162-.8-3.173-7.553,3.141-2.752,2.4,2.8Zm-.771-7,.5,1.2.395-1.25-.363-.423Z" transform="translate(128.591 14.734)" fill="#222"/>
        <path id="Path_18" data-name="Path 18" d="M352.362,56.309V160.1q0,5.084.228,7.842a29.16,29.16,0,0,0,.456,3.693c.152.623.456.927.927.927h13.6V174.4H352.59a37.786,37.786,0,0,1-11.536-1.383,10.836,10.836,0,0,1-6.11-4.62,19.675,19.675,0,0,1-2.417-8.542q-.456-5.312-.456-13.147V56.294H312.01V54.455h20.062V18.48l20.29-16.84V54.455h15.229v1.839H352.362Z" transform="translate(162.199 -1.199)" fill="#554994"/>
        <path id="Path_18_-_Outline" data-name="Path 18 - Outline" d="M353.362-.49V53.455h15.229v3.839H353.362V160.1c0,3.348.076,5.959.224,7.76a27.094,27.094,0,0,0,.431,3.539,1.192,1.192,0,0,0,.051.164h14.507V175.4H352.59a38.38,38.38,0,0,1-11.854-1.435,11.861,11.861,0,0,1-6.647-5.051,20.749,20.749,0,0,1-2.558-8.974c-.3-3.553-.46-8-.46-13.232V57.294H311.01V53.455h20.062V18.01Zm-2,55.944V3.77l-18.29,15.18V146.71c0,5.17.152,9.565.452,13.061a18.814,18.814,0,0,0,2.276,8.109,9.792,9.792,0,0,0,5.572,4.19A37.063,37.063,0,0,0,352.59,173.4h.617a2.075,2.075,0,0,1-1.132-1.529,29.508,29.508,0,0,1-.481-3.848c-.153-1.856-.231-4.522-.231-7.925Z" transform="translate(162.199 -1.199)" fill="#222"/>
        <path id="Path_19" data-name="Path 19" d="M406.895,32.6q25.876,0,39.638,16.369,13.747,16.369,13.754,47.283t-13.754,47.283q-13.748,16.392-39.638,16.384-25.875,0-39.531-16.384Q353.73,127.165,353.73,96.251t13.633-47.283Q381,32.6,406.895,32.6Zm0,126.163q15.161,0,23.33-16.034t8.162-46.477c0-20.305-2.523-34.364-7.584-44.972q-8.047-17.532-23.907-17.524c-10.578,0-17.843,5.35-23.208,16.034s-8.04,26.172-8.04,46.477,2.523,34.592,7.584,45.2q7.82,17.3,23.664,17.3Zm1.611-101.481,1.611,1.611-1.611,4.377-1.611-4.377Z" transform="translate(183.888 14.895)" fill="#554994"/>
        <path id="Path_19_-_Outline" data-name="Path 19 - Outline" d="M406.895,31.6a70.424,70.424,0,0,1,12.358,1.039,53.043,53.043,0,0,1,10.874,3.129A44.071,44.071,0,0,1,447.3,48.326a50.2,50.2,0,0,1,6.138,9.278,62.131,62.131,0,0,1,4.37,11.09,99.331,99.331,0,0,1,3.48,27.557,99.331,99.331,0,0,1-3.48,27.557,62.131,62.131,0,0,1-4.37,11.09,50.2,50.2,0,0,1-6.138,9.278,44.047,44.047,0,0,1-17.171,12.571,53,53,0,0,1-10.874,3.131,73.985,73.985,0,0,1-24.711,0,52.74,52.74,0,0,1-10.856-3.131,43.627,43.627,0,0,1-17.091-12.574,50.2,50.2,0,0,1-6.086-9.278,62.416,62.416,0,0,1-4.331-11.09,100.182,100.182,0,0,1-3.448-27.555A100.182,100.182,0,0,1,356.177,68.7a62.416,62.416,0,0,1,4.331-11.09,50.2,50.2,0,0,1,6.087-9.278A43.645,43.645,0,0,1,383.68,35.768a52.748,52.748,0,0,1,10.855-3.13A70.37,70.37,0,0,1,406.895,31.6Zm8.253,126.854c12.936-1.515,23.212-6.731,30.619-15.562,8.972-10.683,13.52-26.375,13.52-46.64s-4.549-35.957-13.52-46.639c-7.413-8.827-17.694-14.038-30.634-15.55a23.118,23.118,0,0,1,6.262,3.265A28.053,28.053,0,0,1,427.087,43a41.776,41.776,0,0,1,4.621,7.851c5.239,10.984,7.678,25.409,7.678,45.4a158.4,158.4,0,0,1-2.056,27.019,71.35,71.35,0,0,1-6.215,19.912c-2.783,5.472-6.228,9.645-10.24,12.4A23.265,23.265,0,0,1,415.148,158.454Zm-32.824-16.566a72.381,72.381,0,0,1-5.769-19.218,158.158,158.158,0,0,1-1.908-26.4,160.816,160.816,0,0,1,2.023-27.017,72.006,72.006,0,0,1,6.124-19.909c2.816-5.609,6.077-9.663,9.968-12.394a22.418,22.418,0,0,1,5.575-2.846c-12.78,1.559-22.915,6.757-30.2,15.508-8.893,10.677-13.4,26.37-13.4,46.643s4.509,35.965,13.4,46.643c7.34,8.825,17.573,14.039,30.489,15.557a22.859,22.859,0,0,1-6.154-3.2,27.371,27.371,0,0,1-5.622-5.608A40.462,40.462,0,0,1,382.323,141.888Zm24.571,15.875c9.8,0,17.139-5.066,22.438-15.488,5.344-10.494,8.053-25.978,8.053-46.024,0-19.683-2.379-33.836-7.487-44.542l-.006-.013c-5.233-11.4-12.756-16.941-23-16.941-9.92,0-17.01,4.92-22.314,15.483-5.265,10.484-7.934,25.97-7.934,46.028,0,19.837,2.379,34.063,7.487,44.77l.009.019c5.081,11.243,12.524,16.708,22.753,16.708Zm1.611-101.895,2.77,2.77-2.77,7.527-2.771-7.527Zm.452,3.28-.452-.452-.452.452.452,1.227Z" transform="translate(183.888 14.895)" fill="#222"/>
      </g>
      <path id="Path_20" data-name="Path 20" d="M264.636,18.512,262.843,0c-2.614,4.544-7.113,7.69-11.809,10.016s-9.7,3.967-14.362,6.368a30.609,30.609,0,0,0-8.4,6.095A18.66,18.66,0,0,0,225.3,26.6a18.462,18.462,0,0,0-1.915,5.289c-.152.851-1.17,6.414.988,9.621a17.266,17.266,0,0,1,3.055-2.447,25.192,25.192,0,0,1,5.593-2.477,37.277,37.277,0,0,0,7.8-3.359c1.991-1.17,4.468-2.493,5.608-4.605.912-1.672.775-3.572.851-5.411.213-4.423,3.389-5.882,7.387-5.958.182,0,1.763-.122,1.869.106.091.182-.9.182-1.064.182a5.055,5.055,0,0,0-4.7,3.283c-.653,1.763-.334,3.648-.593,5.471-.562,4.058-4.681,6.155-7.979,7.888-3.936,2.067-8.435,2.751-12.2,5.183a17.5,17.5,0,0,0-4.012,3.678c2.052,1.034,5.015-.182,14.2-1.033,8.694-.821,9.453-.258,13.116-1.444,4.195-1.368,8.131-4.088,10.092-8.055,2.1-4.256,1.687-9.286,1.231-14.013Z" transform="translate(115.935)" fill="#1c6758"/>
      <path id="Path_20_-_Outline" data-name="Path 20 - Outline" d="M263.536-3.211,265.9,21.2l-.041-.041c.281,3.819.256,8.082-1.574,11.794a15.336,15.336,0,0,1-4.5,5.353,20.859,20.859,0,0,1-6.183,3.211,20.44,20.44,0,0,1-6.339.985c-1.576.083-3.734.2-6.994.5-3.4.315-5.9.674-7.9.963a34.013,34.013,0,0,1-4.4.472,5.266,5.266,0,0,1-2.443-.5l-1.112-.56.787-.965q.674-.827,1.378-1.537a16.912,16.912,0,0,0-1.507,1.341l-.859.859-.678-1.007a11.046,11.046,0,0,1-1.531-6.2,23.492,23.492,0,0,1,.384-4.129l.005-.028a20.415,20.415,0,0,1,5.134-9.912,31.3,31.3,0,0,1,8.674-6.3c2.493-1.283,5.1-2.361,7.624-3.4,2.241-.926,4.558-1.885,6.754-2.972C256.1,6.393,259.822,3.247,261.976-.5Zm-.165,19.036L262.114,2.853a30.267,30.267,0,0,1-10.637,8.059C249.22,12.029,246.871,13,244.6,13.94c-2.485,1.027-5.054,2.089-7.471,3.333A29.357,29.357,0,0,0,229,23.161a17.622,17.622,0,0,0-2.811,3.905l-.005.01a17.469,17.469,0,0,0-1.809,4.989l0,.02c-.282,1.579-.75,5.2.283,7.8a17.783,17.783,0,0,1,2.249-1.669l.006,0a26.143,26.143,0,0,1,5.814-2.579,36.134,36.134,0,0,0,7.594-3.268l.473-.277c1.8-1.05,3.844-2.24,4.762-3.942a8.647,8.647,0,0,0,.7-4.022c.007-.312.014-.635.027-.955V23.16a6.573,6.573,0,0,1,2.7-5.379,10.1,10.1,0,0,1,5.668-1.53h.014l.144-.006c.2-.01.537-.026.865-.026.57,0,1.43,0,1.767.707a1.04,1.04,0,0,1-.053,1c-.348.563-1.037.61-1.9.61a4.069,4.069,0,0,0-3.77,2.629,9.513,9.513,0,0,0-.4,3.094,18.41,18.41,0,0,1-.138,2.171,8.434,8.434,0,0,1-3.234,5.378,28.462,28.462,0,0,1-5.1,3.166l-.169.089a40.359,40.359,0,0,1-5.561,2.255,29.985,29.985,0,0,0-6.567,2.883,15.4,15.4,0,0,0-2.685,2.233h.123a33.179,33.179,0,0,0,4.111-.452c1.921-.276,4.552-.655,8-.974,3.3-.312,5.482-.426,7.075-.509a18.7,18.7,0,0,0,5.826-.89c4.373-1.426,7.838-4.177,9.5-7.547,2.034-4.126,1.534-9.309,1.132-13.474l-.268-2.782Zm-17.26,14.889a6.977,6.977,0,0,0,3.08-4.558,16.648,16.648,0,0,0,.119-1.94,11.166,11.166,0,0,1,.526-3.742,5.981,5.981,0,0,1,.666-1.294q-.2.112-.375.237a4.617,4.617,0,0,0-1.85,3.836c-.012.3-.019.611-.026.912a10.279,10.279,0,0,1-.947,4.932A7.534,7.534,0,0,1,246.112,30.714Z" transform="translate(115.935)" fill="#222"/>
    </g>
    <text id="THE_TEA_FOR_YOU" data-name="THE TEA FOR YOU" transform="translate(258.087 7600)" font-size="32" font-family="Lora-Italic, Lora" font-style="italic"><tspan x="0" y="0">THE TEA F</tspan><tspan y="0" letter-spacing="-0.009em">O</tspan><tspan y="0">R </tspan><tspan y="0" letter-spacing="-0.03em">Y</tspan><tspan y="0">OU</tspan></text>
  </g>
</svg>
