<svg xmlns="http://www.w3.org/2000/svg" width="27.864" height="28.345" viewBox="0 0 27.864 28.345">
  <path id="Path_23" data-name="Path 23" d="M30.747-511.058l-.947.942-5.507.006-5.513.006-7,7.058c-7.79,7.856-7.291,7.308-7.291,8.083-.006.731-.26.438,5.352,6.045s5.219,5.258,6,5.258c.753,0,.244.477,7.829-7.313l6.826-7.014v-11.491l.925-.925c.859-.859.925-.942.925-1.13a.478.478,0,0,0-.476-.465C31.716-512,31.572-511.873,30.747-511.058Zm-3.02,3.02L26.586-506.9l-.31-.144a2.329,2.329,0,0,0-2.654.465,2.322,2.322,0,0,0,0,3.335,2.343,2.343,0,0,0,1.274.659,2.415,2.415,0,0,0,2.515-1.33,1.581,1.581,0,0,0,.177-.97,1.888,1.888,0,0,0-.161-.986l-.161-.382,1.1-1.1c.6-.6,1.119-1.1,1.141-1.1s.044,2.266.044,5.042v5.036l-6.649,6.831c-5.313,5.463-6.693,6.848-6.865,6.909-.454.166-.2.388-5.607-5.02-5.419-5.424-5.147-5.125-4.964-5.568.05-.116,2.643-2.77,6.909-7.07l6.826-6.881h9.657Zm-2.05,1.779c.094.017.166.044.166.066a6.282,6.282,0,0,1-.493.537,3.075,3.075,0,0,0-.532.648.474.474,0,0,0,.554.549,3.037,3.037,0,0,0,.643-.543l.532-.526.066.177a1.417,1.417,0,0,1-.31,1.385,1.358,1.358,0,0,1-1.684.3,1.4,1.4,0,0,1-.05-2.454A1.338,1.338,0,0,1,25.677-506.26Z" transform="translate(-4.484 512)"/>
</svg>
