<?xml version="1.0" encoding="UTF-8"?>
<svg id="Layer_2" data-name="Layer 2" xmlns="http://www.w3.org/2000/svg" viewBox="0 0 304.26 106.72">
  <defs>
    <style>
      .cls-1 {
        letter-spacing: -.03em;
      }

      .cls-1, .cls-2, .cls-3, .cls-4 {
        isolation: isolate;
      }

      .cls-1, .cls-3, .cls-4 {
        font-family: Lora-Italic, Lora;
        font-size: 14.73px;
        font-style: italic;
      }

      .cls-5 {
        fill: #1c6758;
      }

      .cls-5, .cls-6 {
        stroke: #222;
      }

      .cls-6 {
        fill: #554994;
      }

      .cls-4 {
        letter-spacing: 0em;
      }

      .cls-7 {
        letter-spacing: 0em;
      }
    </style>
  </defs>
  <g id="Layer_1-2" data-name="Layer 1">
    <g>
      <g id="Group_31" data-name="Group 31">
        <g id="Group_30" data-name="Group 30">
          <g id="Group_8" data-name="Group 8">
            <path id="Path_12" data-name="Path 12" class="cls-6" d="m29.15,82.25c3.54,0,6.98-1.12,9.82-3.18,3-2.13,5.41-5.14,7.22-9.03l.98.53-.33.43c-1.88,3.82-4.38,6.79-7.49,8.92-2.98,2.08-6.55,3.2-10.21,3.18-9.26,0-16.35-2.46-21.27-7.38-4.91-4.92-7.37-12.02-7.37-21.29,0-9.27,2.33-16.41,7-21.4,4.67-4.99,11.63-7.48,20.89-7.49,1.75,0,3.49.16,5.21.47,1.79.34,3.52.97,5.1,1.86,1.81,1.03,3.44,2.34,4.83,3.88,1.75,1.94,3.22,4.1,4.4,6.42.06.12.12.24.16.37s.1.25.16.37v.1c.58,1.38.71,2.9.38,4.35-.78,3.45-4.05,5.81-7.65,5.52-1.94-.1-3.75-.98-4.99-2.44-1.34-1.4-2.01-3.29-1.85-5.21.1-1.9,1.01-3.67,2.49-4.88,2.2-1.94,5.39-2.36,8.03-1.06-2.46-3.4-4.99-5.7-7.6-6.91-2.47-1.17-5.18-1.79-7.92-1.8-5.86,0-10.34,2.37-13.46,7.12-3.11,4.74-4.67,11.64-4.67,20.7,0,9.06,1.55,15.96,4.67,20.7,3.11,4.74,7.6,7.12,13.46,7.12h0Zm-3.79-46.18l.76-.74.76.74-.76,2.02-.76-2.02Z"/>
            <path id="Path_13" data-name="Path 13" class="cls-6" d="m111.37,81.8c-1.04.86-2.24,1.54-3.52,2-1.6.57-3.3.83-5,.78-3.64,0-6.29-.78-7.95-2.34-1.48-1.33-2.51-3.08-2.96-5-.49-1.32-.72-2.71-.68-4.12v-5.56c-.99,5.11-3.11,9.11-6.36,12.01-3.18,2.87-7.38,4.42-11.7,4.34-3.01.03-6.02-.23-8.98-.78-2.27-.4-4.43-1.23-6.36-2.45-3.03-1.85-4.55-4.63-4.55-8.34-.03-2.32.46-4.61,1.42-6.72.93-2.02,2.31-3.8,4.04-5.22,1.85-1.5,3.97-2.65,6.25-3.39,2.6-.84,5.33-1.25,8.06-1.22,6.36,0,10.99-1.28,13.86-3.84,2.88-2.56,4.32-6.65,4.32-12.28,0-5.34-1.14-9.34-3.41-12.01-2.04-2.37-5-3.56-8.87-3.56-3.37,0-6.7.81-9.66,2.39-3.05,1.61-5.69,3.87-7.73,6.61,1.49-.81,3.22-1.07,4.89-.72,1.72.32,3.28,1.2,4.43,2.5,1.41,1.48,2.11,3.48,1.93,5.5-.19,4.09-3.73,7.26-7.91,7.08-.11,0-.22-.01-.33-.02-4.3-.33-7.52-4-7.19-8.21.06-.77.24-1.53.53-2.25,1.74-4.74,4.47-8.22,8.18-10.45,3.71-2.23,7.99-3.34,12.84-3.33,14.85,0,22.27,6.93,22.27,20.79v32.9c0,2.15.34,3.6,1.03,4.34.77.78,1.85,1.18,2.96,1.11.89,0,1.77-.15,2.61-.45.92-.34,1.8-.78,2.61-1.33l.91,1.22v.02Zm-20.1-36.32l-.44,1.17c-.87,3.33-2.58,5.74-5.16,7.22-2.57,1.48-6.2,2.23-10.91,2.23-3.04,0-5.5,1.36-7.38,4.09-1.88,2.73-2.82,6.32-2.82,10.77,0,3.47.76,6.09,2.28,7.86,1.67,1.98,4.2,2.97,7.6,2.97,4.71,0,8.56-1.66,11.56-4.99,3-3.32,4.76-7.82,5.26-13.48v-17.84h0Zm-10.22-9.96l-.76,2.01-.76-2.01.76-.74.76.74Z"/>
            <path id="Path_14" data-name="Path 14" class="cls-6" d="m131.98,81.49h-.57l-.11,1h-18.35c0-.28-.03-.33-.08-.34,0,0,.38,0,.38,0v-.66h.6c.65.02,1.29-.13,1.84-.42.62-.4,1.1-.95,1.37-1.59.47-1.05.77-2.15.89-3.27.22-1.82.32-3.66.3-5.49V13.36c.02-1.83-.08-3.67-.3-5.49-.12-1.14-.42-2.26-.89-3.33-.26-.65-.74-1.22-1.37-1.64-.56-.29-1.2-.44-1.84-.42h-.6v1h14v67.3s.22,3.62.43,5.42c.12,1.11.38,2.21.76,3.26.35,1.25,1.55,2.1,2.89,2.01h.65,0Z"/>
            <path id="Path_15" data-name="Path 15" class="cls-6" d="m152.69,81.49h-.23l-.11,1h-18.35c0-.28-.03-.33-.08-.34,0,0-.55,0-.67,0v-.66h.77c.62.02,1.23-.13,1.77-.42.6-.4,1.06-.95,1.32-1.59.45-1.05.74-2.15.86-3.27.21-1.82.31-3.66.29-5.49V13.36c.02-1.83-.07-3.67-.29-5.49-.12-1.14-.41-2.26-.86-3.33-.25-.65-.71-1.22-1.32-1.64-.54-.29-1.15-.44-1.77-.42h.23v1h14v67.3s-.07,3.62.13,5.42c.12,1.11.38,2.21.76,3.26.35,1.25,1.55,2.1,2.89,2.01h.65,0Z"/>
            <path id="Path_16" data-name="Path 16" class="cls-6" d="m175.26,81.52v.1l.02-.14h-18.37l-.65.66v.34h1.19c.56-.44,1.1-.59,1.57-.87.57-.4,1-.95,1.25-1.6.43-1.05.7-2.16.82-3.29.2-1.83.17-5.52.17-5.52v-34.61s.04-3.69-.17-5.52c-.11-1.15-.39-2.27-.82-3.34-.24-.66-.68-1.23-1.25-1.64-.47-.28-1.02-.43-1.57-1.6h-.65l.11,1h14.35v45.24s-.15,3.67.05,5.5c.11,1.12.36,2.22.74,3.28.37,1.23,1.52,2.06,2.81,1.98h.53l-.13.03Z"/>
            <path id="Path_17" data-name="Path 17" class="cls-6" d="m216.17,55.39c3.62,3.18,5.43,6.97,5.43,11.36.04,2.32-.5,4.62-1.57,6.69-1.08,2.02-2.6,3.77-4.45,5.15-2.08,1.53-4.44,2.67-6.94,3.34-2.91.8-5.93,1.2-8.95,1.17-8.14,0-15.77-3.83-20.51-10.3-1.21-1.42-1.78-3.26-1.57-5.1.15-1.84,1.02-3.56,2.44-4.78,3.05-2.61,7.69-2.31,10.36.68,1.3,1.45,1.94,3.35,1.8,5.27-.1,1.9-1.01,3.67-2.49,4.88-.94.81-2.08,1.38-3.31,1.64-1.17.25-2.39.2-3.53-.16.51.5,1.02.96,1.52,1.38.51.43,1.06.82,1.63,1.17,3.99,2.79,8.77,4.28,13.67,4.25,3.69,0,6.64-1.31,8.85-3.92,2.2-2.62,3.31-6.08,3.31-10.4,0-2.48-1.25-4.58-3.75-6.32s-5.95-2.88-10.36-3.45c-6.37-.78-11.32-2.72-14.87-5.84-3.46-2.92-5.41-7.2-5.32-11.68-.03-2.29.47-4.56,1.47-6.64.97-2.01,2.4-3.77,4.18-5.15,1.93-1.47,4.12-2.59,6.46-3.3,2.69-.81,5.49-1.2,8.3-1.17,2.52-.01,5.03.36,7.44,1.11,2.43.79,4.64,2.11,6.46,3.88.29.21.54.46.76.74,1.34,1.4,2.01,3.29,1.85,5.21-.12,1.92-1.01,3.72-2.49,4.99-1.46,1.26-3.38,1.87-5.32,1.7-1.97-.11-3.8-.99-5.1-2.44-1.28-1.43-1.91-3.31-1.74-5.21.12-1.92,1.01-3.72,2.49-4.99.76-.69,1.67-1.2,2.66-1.49.97-.28,1.98-.35,2.98-.21-3.05-1.67-6.49-2.51-9.98-2.44-3.19-.07-6.2,1.43-8.03,3.98-2.02,2.65-3.04,6.17-3.04,10.56,0,2.48,1.14,4.56,3.42,6.26,2.28,1.69,5.52,2.83,9.71,3.4,7.02.99,12.41,3.05,16.17,6.16h0Zm-22.36-20.06l.87-.74.65.74-.65,2.01-.87-2.01Z"/>
            <path id="Path_18" data-name="Path 18" class="cls-6" d="m242.26,28.22v47.53c0,1.56.04,2.76.11,3.61.03.57.11,1.14.21,1.7.07.29.21.43.44.43h6.24v1h-6.26c-1.8-.42-3.6-.62-5.33-1.08-1.17-.33-2.17-1.04-2.83-2.02-.67-1.15-1.05-2.42-1.12-3.73-.14-1.55-.46-5.74-.46-5.74V28.49h-10v-1h9V10.93l10-7.75v24.31h7v1h-7v-.27Z"/>
            <path id="Path_19" data-name="Path 19" class="cls-6" d="m278.63,24.38c8.12,0,14.34,2.51,18.65,7.54,4.31,5.02,6.47,12.28,6.47,21.77,0,9.49-2.16,16.74-6.47,21.77-4.31,5.03-10.53,7.54-18.65,7.54-8.12,0-14.32-2.51-18.6-7.54-4.28-5.02-6.42-12.28-6.42-21.77s2.14-16.74,6.42-21.77c4.28-5.02,10.48-7.53,18.6-7.53Zm0,58.08c4.76,0,8.42-2.46,10.98-7.38,2.56-4.92,3.84-12.05,3.84-21.39,0-9.35-1.19-15.82-3.57-20.7-2.52-5.38-6.27-8.07-11.25-8.07-4.98,0-8.4,2.46-10.92,7.38-2.52,4.92-3.78,12.05-3.78,21.39s1.19,15.92,3.57,20.81c2.45,5.31,6.17,7.96,11.14,7.96h0Zm.76-46.72l.76.74-.76,2.01-.76-2.01.76-.74Z"/>
          </g>
          <path id="Path_20" data-name="Path 20" class="cls-5" d="m179.71,10.1l-.84-8.52c-1.23,2.09-3.35,3.54-5.56,4.61-2.21,1.07-4.56,1.83-6.76,2.93-1.47.71-2.81,1.66-3.95,2.81-.55.57-1.02,1.21-1.4,1.9-.43.76-.73,1.58-.9,2.43-.07.39-.55,2.95.46,4.43.43-.43.92-.81,1.44-1.13.83-.48,1.71-.87,2.63-1.14,1.28-.38,2.51-.9,3.67-1.55.94-.54,2.1-1.15,2.64-2.12.43-.77.36-1.64.4-2.49.1-2.04,1.59-2.71,3.48-2.74.09,0,.83-.06.88.05.04.08-.42.08-.5.08-.99,0-1.87.61-2.21,1.51-.31.81-.16,1.68-.28,2.52-.26,1.87-2.2,2.83-3.75,3.63-1.85.95-3.97,1.27-5.74,2.39-.72.46-1.35,1.04-1.89,1.69.97.48,2.36-.08,6.68-.48,4.09-.38,4.45-.12,6.17-.66,1.97-.63,3.83-1.88,4.75-3.71.99-1.96.79-4.27.58-6.45h0Z"/>
        </g>
      </g>
      <g id="THE_TEA_FOR_YOU" data-name="THE TEA FOR YOU" class="cls-2">
        <text class="cls-3" transform="translate(86.3 102.54) scale(1.02 1)"><tspan x="0" y="0">THE TEA F</tspan></text>
        <text class="cls-4" transform="translate(161.31 102.54) scale(1.02 1)"><tspan x="0" y="0">O</tspan></text>
        <text class="cls-3" transform="translate(173.04 102.54) scale(1.02 1)"><tspan x="0" y="0">R </tspan></text>
        <text class="cls-1" transform="translate(186.41 102.54) scale(1.02 1)"><tspan x="0" y="0">Y</tspan></text>
        <text class="cls-3" transform="translate(195.61 102.54) scale(1.02 1)"><tspan class="cls-7" x="0" y="0">O</tspan><tspan x="11.52" y="0">U</tspan></text>
      </g>
    </g>
  </g>
</svg>