<?xml version="1.0" encoding="UTF-8"?>
<svg id="Layer_2" data-name="Layer 2" xmlns="http://www.w3.org/2000/svg" viewBox="0 0 308.15 293.52">
  <defs>
    <style>
      .cls-1 {
        fill: #ffccb3;
      }
    </style>
  </defs>
  <g id="Layer_1-2" data-name="Layer 1">
    <g>
      <path class="cls-1" d="m69.99,156.67c4.57-3.94,10.63-5.71,16.59-6.64,5.96-.93,12.04-1.14,17.93-2.48,14.96-3.41,27.95-14.54,33.61-28.81-2.02,7.6-3.62,15.44-3.07,23.29.56,8.04,3.35,16.22,1.19,23.99-2,7.21-7.91,12.63-13.97,17.03-2.47,1.79-5.04,3.5-7.9,4.56-9.69,3.59-20.29-.85-29.87-4.71-4.14-1.67-8.32-3.24-12.54-4.71-3.08-1.08-8.18-1.7-10.17-4.6-3.62-5.28,4.55-13.78,8.2-16.92Z"/>
      <path class="cls-1" d="m177.57,149c5.05-8.32,13.25-14.16,21.38-19.52,2.08-1.37,4.2-2.75,5.83-4.63,3.54-4.08,4.26-9.81,4.84-15.18-.35,10.99,4.73,21.31,8.21,31.74,1.85,5.53,3.27,11.4,2.36,17.16-1.67,10.63-11.55,18.88-22.21,20.37-5.46.76-10.96.03-16.43-.12-3.33-.09-10.54,2.22-12.23-1.5-1.55-3.42,1.65-10.62,2.58-14.06,1.34-4.95,3-9.86,5.67-14.26Z"/>
      <path class="cls-1" d="m149.8,124.29c-1.53-6.14-2.94-12.35-3.12-18.67s.92-12.81,4.12-18.26c2.75-4.68,6.88-8.38,11.15-11.73,4.27-3.35,8.73-6.44,13.2-9.52,4.75-3.29,9.5-6.57,14.26-9.86-7.33,4.32-12.85,11.62-14.99,19.86-2.05,7.91-1.07,16.23-1.09,24.4-.03,13.36-2.71,27.17-8.3,39.35-1.43,3.12-5.81,9.12-9.43,4.95-1.76-2.03-2.21-7.03-2.94-9.65-1-3.61-1.95-7.23-2.86-10.86Z"/>
      <path class="cls-1" d="m184.62,112.95c3.85-9.05,8.24-18,14.56-25.54,6.32-7.54,14.77-13.62,24.41-15.54,4.44-.88,9-.87,13.53-.83,18.46.15,36.95.63,55.36-.8,5.3-.41,10.65-1,15.67-2.74-8.04,4.8-15.14,11.17-20.77,18.66-3.16,4.21-5.91,8.8-9.81,12.33-5.46,4.95-13.06,7.44-20.39,6.7-3.53-.36-6.95-1.42-10.41-2.21-19.27-4.42-39.57-.37-58.08,6.58"/>
      <path class="cls-1" d="m236.71,141.23c2.44,7.06,10.3,10.29,16.49,14.45,14.1,9.46,21.4,26.31,25.14,42.87,1.31,5.79,2.23,12.1-.31,17.46.29-2.61,1.99-4.82,3.47-6.99,5.36-7.86,8.63-17.13,9.39-26.61.25-3.19.23-6.42-.35-9.56-1.87-10.25-9.3-18.57-17.16-25.41-5.63-4.9-11.65-9.37-17.97-13.33-3.81-2.39-7.81-4.65-10.8-8.01-3.85-4.31-5.73-10.31-5.05-16.05-.63,5.24-2.12,10.09-2.3,15.46s-2.34,10.56-.56,15.72Z"/>
      <path class="cls-1" d="m163.85,196.99c9.93,5.79,22.4,5.14,33.53,2.28,11.13-2.86,21.72-7.73,32.99-9.97,11.28-2.24,23.98-1.45,32.82,5.9-3.04.7-6.07,1.4-9.11,2.1-3.46.8-7.07,1.67-9.76,3.98-2.04,1.75-3.36,4.16-4.92,6.36-4.08,5.76-10.02,10.19-16.71,12.46-3.11,1.06-6.36,1.65-9.6,2.22-5.5.96-11.05,1.84-16.64,1.89-7.98.08-16.03-1.58-23.07-5.33s-13-9.68-16.27-16.96c-1.48-3.29-2.4-6.79-3.31-10.28-1.13-4.29-2.03-8.74-3.46-12.94.62,3.75,2.61,7.49,4.87,10.54,1.45,1.96,5.9,7.76,8.62,7.76Z"/>
      <path class="cls-1" d="m132.21,186.04c-5.13,11.62-12.82,22.11-22.37,30.49-9.03,7.93-20.22,14.72-24.26,26.03-4.15,11.63,1.33,25.53,11.61,32.37s24.3,6.85,35.33,1.31c1.06-.53,2.12-1.13,2.96-1.98,1.19-1.21,1.85-2.85,2.34-4.48,2.28-7.53,1.7-15.65.15-23.37-1.54-7.72-4.02-15.22-5.52-22.95-2.67-13.77-2.19-28.13,1.41-41.69"/>
      <path class="cls-1" d="m103.66,79.39c-.02-3.69.2-7.42,1.28-10.94,1.65-5.42,5.21-10.01,8.7-14.47,3.17-4.05,6.33-8.1,9.5-12.15-3.01,3.26-2.55,8.48-.71,12.52s4.79,7.5,6.49,11.59c2.01,4.83,2.14,10.25,1.52,15.45-.72,6.15-2.47,12.17-5.1,17.78-1.95,4.16-5.64,12.68-10.45,14.14-9.39,2.86-11.19-28.17-11.23-33.91Z"/>
      <path class="cls-1" d="m149.46,158.83c-.62.17-1.27.37-1.73.82-.41.4-.63.96-.83,1.5-.59,1.56-1.18,3.14-1.27,4.8s.42,3.44,1.7,4.5c.43.36.93.62,1.45.82,2.87,1.09,6.43-.07,8.11-2.64.26-.39.47-.81.69-1.23,1.19-2.31,2.38-4.63,3.57-6.94.25-.48.5-.99.5-1.54-.06-4.35-10.32-.61-12.18-.09Z"/>
      <path class="cls-1" d="m196.01,237.59c16.32-1.07,32.87,1.4,48.16,7.2,10.23,3.88,20.35,9.32,31.29,9.13,1.58-.03,3.18-.18,4.67-.7-7.87,5.71-17.49,8.41-26.94,10.7-8.55,2.08-17.35,3.93-26.08,2.84-4.32-.54-8.52-1.79-12.69-3.04-3.24-.97-6.61-2-9.09-4.3-1.59-1.47-2.72-3.36-3.93-5.16-3.04-4.49-18.1-15.83-5.39-16.67Z"/>
      <path class="cls-1" d="m163.11,228.47c4.33,2.93,8.9,6.17,10.71,11.08,1.79,4.86.46,10.27,1.05,15.41.69,6.06,4.06,11.54,8.17,16.05,4.11,4.51,8.98,8.25,13.48,12.37.96.88,2,2.1,1.57,3.33-.31.9-1.29,1.36-2.18,1.71-7.21,2.78-14.97,3.77-22.64,4.74-4.41.56-9.5.9-12.66-2.21-1.5-1.48-2.3-3.51-2.95-5.51-2.14-6.55-3.21-13.46-3.15-20.35.04-4.52.55-9.11-.47-13.51-1.2-5.15-4.4-9.6-6.26-14.55-1.14-3.02-4.33-15.53-.28-17.43,3.08-1.45,13.01,7.13,15.61,8.89Z"/>
      <path class="cls-1" d="m72.65,77c2.31,1.4,4.65,2.82,6.48,4.81,3.36,3.66,4.58,8.79,5.06,13.73s.37,9.98,1.61,14.79c3.21,12.45,15.44,21.21,28.17,22.99-4.35,2.35-9.56,2.51-14.48,1.94s-9.74-1.83-14.68-2.13c-6.21-.38-12.57.76-18.59-.8-2.2-.57-4.37-1.53-5.97-3.15-1.22-1.22-2.06-2.77-2.84-4.31-5.29-10.49-8.36-22.09-8.95-33.82-.21-4.19-.1-8.46,1.17-12.45,1.04-3.27,4.24-9.6,8.27-9.84,4.11-.25,11.26,6.14,14.74,8.24Z"/>
      <path class="cls-1" d="m83.33,193.58c-4.88-.31-9.92-.56-14.55,1.02-4.28,1.46-7.87,4.37-11.55,6.99-9,6.42-19.79,11.53-30.76,10.11,0,2.2,1.09,4.24,2.15,6.17,3.78,6.9,7.55,13.79,11.33,20.69,1.24,2.27,2.62,4.68,4.95,5.83,1.92.95,4.22.87,6.3.34,9.95-2.54,14.88-13.55,22.94-19.91,2.5-1.97,5.33-3.51,7.77-5.55,1.98-1.66,3.68-3.64,5.25-5.7,2.89-3.78,7.66-9.55,8.51-14.36,1-5.65-8.41-5.39-12.33-5.64Z"/>
      <path class="cls-1" d="m196.17,58.61l1.53-1.53"/>
      <path class="cls-1" d="m201.33,54.26c6.67-4.97,10.18-13.23,11.49-21.45,1.32-8.21.73-16.59.82-24.91.03-2.74.18-5.63,1.7-7.91.84,5.93,3.44,11.6,7.4,16.1,5.27,5.99,12.93,10.06,16.4,17.25,1.59,3.3,2.15,7,2.33,10.66.26,5.06-.4,10.68-4.13,14.1-1.61,1.48-3.65,2.4-5.72,3.13-6.74,2.38-14.13,2.89-21.14,1.47-4.88-.99-9.8-2.9-14.68-1.96"/>
      <path class="cls-1" d="m47.24,130.59c-2.36-1.4-5.25-1.47-8-1.45-4.91.04-10.43.52-13.6,4.27-1.69,2-2.41,4.62-3.21,7.11-4.22,13.13-12.06,25.08-22.43,34.17,3.16-.36,6.32-.71,9.47-1.07,4.28-.48,8.63-.96,12.89-.3,2.37.37,4.69,1.09,7.08,1.18,6.14.25,11.77-3.65,15.69-8.4,4.71-5.7,8.44-13.34,10.31-20.51,1.21-4.64-4.09-12.57-8.2-15.01Z"/>
      <path class="cls-1" d="m146.93,68.1c1.13-4.08,3.28-7.88,6.21-10.95"/>
      <path class="cls-1" d="m156.01,54.13c6.75-4.3,13.51-8.59,20.26-12.89,1.93-1.23,3.92-2.51,5.2-4.41.97-1.44,1.48-3.14,1.79-4.85,1.01-5.47.17-11.27-2.36-16.22-1.16-2.27-2.96-4.56-5.49-4.86-2.75-.33-5.1,1.77-7.5,3.14-7.57,4.32-17.95,1.97-24.81,7.33-4.1,3.2-6,8.6-6.15,13.79s1.21,10.31,2.56,15.33c1.72,6.39,3.45,12.78,5.17,19.18"/>
      <path class="cls-1" d="m42.45,69.01c-.74-1.31-1.49-2.61-2.23-3.92-1.23-2.17-5.46-4.27-7.72-5.32-1.25-.58-2.53-1.08-3.74-1.75-3.24-1.8-5.8-4.8-7.05-8.29-3.68,11.03-3.78,22.84-1.02,34.14s8.26,21.83,15.26,31.12c3.16-10.96,4.73-22.37,4.65-33.77-.03-3.89.71-8.49,1.85-12.21Z"/>
      <path class="cls-1" d="m80.58,65.62c1.11.23,2.25.46,3.38.32,1.05-.13,2.03-.58,2.98-1.06,9.36-4.77,16.63-12.88,22.46-21.62,3.4-5.1,6.43-10.52,10.69-14.93,4.93-5.09,11.42-8.65,18.37-10.05-7.15-4.82-15.77-6.86-24.18-8.8-6.01-1.39-12.51-2.75-18.19-.32-4.5,1.92-7.71,5.91-11.28,9.26-8.96,8.43-21.1,13.54-28.16,23.62-1.48,2.11-2.71,4.41-4.45,6.29-2.48,2.68-7.53,3.27-3.58,6.56,2.76,2.31,6.9,3.75,10.23,5.01,7.02,2.66,14.41,4.21,21.74,5.72Z"/>
    </g>
  </g>
</svg>